<svg xmlns="http://www.w3.org/2000/svg">
  <symbol id="tire-icon" viewBox="0 0 24 24">
    <circle cx="12" cy="12" r="10" fill="none" stroke="currentColor" stroke-width="2"/>
    <circle cx="12" cy="12" r="6" fill="none" stroke="currentColor" stroke-width="1.5"/>
    <circle cx="12" cy="12" r="2" fill="currentColor"/>
    <path d="M12 2 L12 6 M12 18 L12 22 M2 12 L6 12 M18 12 L22 12" stroke="currentColor" stroke-width="1.5" stroke-linecap="round" opacity="0.4"/>
    <path d="M4.93 4.93 L7.76 7.76 M16.24 16.24 L19.07 19.07 M4.93 19.07 L7.76 16.24 M16.24 7.76 L19.07 4.93" stroke="currentColor" stroke-width="1.2" stroke-linecap="round" opacity="0.3"/>
  </symbol>
  <symbol id="warehouse-icon" viewBox="0 0 24 24">
    <path d="M3 21V9l9-6 9 6v12H3z" fill="none" stroke="currentColor" stroke-width="2" stroke-linejoin="round"/>
    <path d="M9 21V13H15V21" fill="none" stroke="currentColor" stroke-width="2"/>
  </symbol>
  <symbol id="store-icon" viewBox="0 0 24 24">
    <path d="M4 7V21H20V7" fill="none" stroke="currentColor" stroke-width="2"/>
    <path d="M2 7L12 2L22 7" fill="none" stroke="currentColor" stroke-width="2"/>
    <rect x="9" y="14" width="6" height="7" fill="none" stroke="currentColor" stroke-width="1.5"/>
  </symbol>
</svg>
